<svg viewBox="0 0 900 120" xmlns="http://www.w3.org/2000/svg" font-family="'Segoe UI', sans-serif">
  <defs>
    <linearGradient id="bg3" x1="0%" y1="0%" x2="100%" y2="100%">
      <stop offset="0%" style="stop-color:#0f1923"/>
      <stop offset="100%" style="stop-color:#1a2e4a"/>
    </linearGradient>
  </defs>

  <rect width="900" height="120" fill="url(#bg3)" rx="12"/>
  <line x1="0" y1="118" x2="900" y2="118" stroke="#0078d4" stroke-width="2" opacity="0.4"/>

  <!-- Alejandro -->
  <circle cx="160" cy="55" r="30" fill="#0078d4" opacity="0.15"/>
  <circle cx="160" cy="55" r="30" fill="none" stroke="#0078d4" stroke-width="2"/>
  <text x="160" y="50" text-anchor="middle" fill="#00bcf2" font-size="22">🧠</text>
  <text x="160" y="68" text-anchor="middle" fill="#00bcf2" font-size="10">ML Lead</text>
  <text x="160" y="98" text-anchor="middle" fill="white" font-size="13" font-weight="600">Alejandro Benítez</text>
  <text x="160" y="112" text-anchor="middle" fill="#667788" font-size="10">Modelos · Azure ML · SHAP</text>

  <!-- divider -->
  <line x1="320" y1="20" x2="320" y2="100" stroke="#0078d4" stroke-width="0.5" opacity="0.4"/>

  <!-- Borja -->
  <circle cx="450" cy="55" r="30" fill="#0078d4" opacity="0.15"/>
  <circle cx="450" cy="55" r="30" fill="none" stroke="#00bcf2" stroke-width="2"/>
  <text x="450" y="50" text-anchor="middle" fill="#00bcf2" font-size="22">⚙️</text>
  <text x="450" y="68" text-anchor="middle" fill="#00bcf2" font-size="10">Data Engineer</text>
  <text x="450" y="98" text-anchor="middle" fill="white" font-size="13" font-weight="600">Borja Núñez</text>
  <text x="450" y="112" text-anchor="middle" fill="#667788" font-size="10">ETL · PostgreSQL · Feature Eng.</text>

  <!-- divider -->
  <line x1="580" y1="20" x2="580" y2="100" stroke="#0078d4" stroke-width="0.5" opacity="0.4"/>

  <!-- Marta -->
  <circle cx="740" cy="55" r="30" fill="#0078d4" opacity="0.15"/>
  <circle cx="740" cy="55" r="30" fill="none" stroke="#0078d4" stroke-width="2"/>
  <text x="740" y="50" text-anchor="middle" fill="#00bcf2" font-size="22">🚀</text>
  <text x="740" y="68" text-anchor="middle" fill="#00bcf2" font-size="10">Backend Lead</text>
  <text x="740" y="98" text-anchor="middle" fill="white" font-size="13" font-weight="600">Marta Moreno</text>
  <text x="740" y="112" text-anchor="middle" fill="#667788" font-size="10">FastAPI · Power BI · Notificaciones</text>
</svg>
